<svg xmlns="http://www.w3.org/2000/svg">
<symbol id="reload" fill="currentColor" viewBox="0 0 512 512"><path d="M406.6 202.6c-7.7-21.8-20.2-42.3-37.8-59.8c-62.5-62.5-163.8-62.5-226.3 0L125.5 160l34.3 0c17.7 0 32 14.3 32 32s-14.3 32-32 32L48.3 224c0 0 0 0 0 0l-.4 0c-17.7 0-32-14.3-32-32l0-112c0-17.7 14.3-32 32-32s32 14.3 32 32l0 35.2L97.4 97.6c87.5-87.5 229.3-87.5 316.8 0c24.4 24.4 42.1 53.1 52.9 83.7c5.9 16.7-2.9 34.9-19.5 40.8s-34.9-2.9-40.8-19.5zm66.1 86.6c5 1.5 9.8 4.2 13.7 8.2c4 4 6.7 8.9 8.1 14c.3 1.2 .6 2.5 .8 3.8c.3 1.7 .4 3.4 .4 5.1l0 111.6c0 17.7-14.3 32-32 32s-32-14.3-32-32l0-35.1-17.6 17.5c0 0 0 0 0 0c-87.5 87.4-229.3 87.4-316.7 0C73 390 55.3 361.3 44.5 330.6c-5.9-16.7 2.9-34.9 19.5-40.8s34.9 2.9 40.8 19.5c7.7 21.8 20.2 42.3 37.8 59.8c62.5 62.5 163.8 62.5 226.3 0l.1-.1L386.1 352l-34.4 0c-17.7 0-32-14.3-32-32s14.3-32 32-32l111.6 0c1.6 0 3.2 .1 4.8 .3s3.1 .5 4.6 1z"/></symbol>
<symbol id="card" fill="currentColor" viewBox="0 0 448 512"><path d="M0 32l64 0 0 64L0 96 0 32zm0 96l64 0 0 64L0 192l0-64zm64 96l0 64L0 288l0-64 64 0zM0 320l64 0 0 64L0 384l0-64zm64 96l0 64L0 480l0-64 64 0zM96 32l64 0 0 64L96 96l0-64zm64 96l0 64-64 0 0-64 64 0zM96 224l64 0 0 64-64 0 0-64zm64 96l0 64-64 0 0-64 64 0zM96 416l64 0 0 64-64 0 0-64zM256 32l0 64-64 0 0-64 64 0zm-64 96l64 0 0 64-64 0 0-64zm64 96l0 64-64 0 0-64 64 0zm-64 96l64 0 0 64-64 0 0-64zm64 96l0 64-64 0 0-64 64 0zM288 32l64 0 0 64-64 0 0-64zm64 96l0 64-64 0 0-64 64 0zm-64 96l64 0 0 64-64 0 0-64zm64 96l0 64-64 0 0-64 64 0zm-64 96l64 0 0 64-64 0 0-64zM448 32l0 64-64 0 0-64 64 0zm-64 96l64 0 0 64-64 0 0-64zm64 96l0 64-64 0 0-64 64 0zm-64 96l64 0 0 64-64 0 0-64zm64 96l0 64-64 0 0-64 64 0z"/></symbol>
<symbol id="balls" fill="currentColor" viewBox="0 0 576 512"><path d="M288 160A80 80 0 1 0 288 0a80 80 0 1 0 0 160zM176 328a80 80 0 1 0 0-160 80 80 0 1 0 0 160zM160 432A80 80 0 1 0 0 432a80 80 0 1 0 160 0zm128 80a80 80 0 1 0 0-160 80 80 0 1 0 0 160zm288-80a80 80 0 1 0 -160 0 80 80 0 1 0 160 0zM400 328a80 80 0 1 0 0-160 80 80 0 1 0 0 160z"/></symbol>
<symbol id="house" fill="currentColor" viewBox="0 0 576 512"><path d="M575.8 255.5c0 18-15 32.1-32 32.1l-32 0 .7 160.2c0 2.7-.2 5.4-.5 8.1l0 16.2c0 22.1-17.9 40-40 40l-16 0c-1.1 0-2.2 0-3.3-.1c-1.4 .1-2.8 .1-4.2 .1L416 512l-24 0c-22.1 0-40-17.9-40-40l0-24 0-64c0-17.7-14.3-32-32-32l-64 0c-17.7 0-32 14.3-32 32l0 64 0 24c0 22.1-17.9 40-40 40l-24 0-31.9 0c-1.5 0-3-.1-4.5-.2c-1.2 .1-2.4 .2-3.6 .2l-16 0c-22.1 0-40-17.9-40-40l0-112c0-.9 0-1.9 .1-2.8l0-69.7-32 0c-18 0-32-14-32-32.1c0-9 3-17 10-24L266.4 8c7-7 15-8 22-8s15 2 21 7L564.8 231.5c8 7 12 15 11 24z"/></symbol>
</svg>